<svg width="36" height="36" viewBox="0 0 36 36" fill="none" xmlns="http://www.w3.org/2000/svg">
<path d="M33.1669 9.70205L21.9169 3.51455C21.7508 3.42316 21.5643 3.37524 21.3747 3.37524C21.185 3.37524 20.9985 3.42316 20.8324 3.51455L9.5824 9.70205C9.40601 9.79917 9.25893 9.94184 9.15648 10.1152C9.05404 10.2885 9 10.4862 9 10.6876C9 10.8889 9.05404 11.0866 9.15648 11.2599C9.25893 11.4333 9.40601 11.5759 9.5824 11.6731L20.2497 17.5399V29.5988L16.8341 27.7201L15.7497 29.6899L20.8324 32.4855C20.9985 32.5769 21.185 32.6249 21.3747 32.6249C21.5643 32.6249 21.7508 32.5769 21.9169 32.4855L33.1669 26.298C33.3434 26.201 33.4905 26.0583 33.593 25.885C33.6955 25.7116 33.7496 25.5139 33.7497 25.3126V10.6876C33.7496 10.4862 33.6955 10.2885 33.593 10.1151C33.4905 9.94178 33.3434 9.79912 33.1669 9.70205ZM21.3747 5.7848L30.2903 10.6876L21.3747 15.5903L12.459 10.6876L21.3747 5.7848ZM31.4997 24.6477L22.4997 29.5977V17.5388L31.4997 12.5888V24.6477Z" fill="#202020"/>
<path d="M11.25 18H2.25V15.75H11.25V18ZM13.5 27H4.5V24.75H13.5V27ZM15.75 22.5H6.75V20.25H15.75V22.5Z" fill="#202020"/>
</svg>
