<svg width="36" height="36" viewBox="0 0 36 36" fill="none" xmlns="http://www.w3.org/2000/svg">
<path d="M4.5 6H21C21.3978 6 21.7794 6.15804 22.0607 6.43934C22.342 6.72064 22.5 7.10218 22.5 7.5V24C22.5 24.3978 22.342 24.7794 22.0607 25.0607C21.7794 25.342 21.3978 25.5 21 25.5H4.5C4.10218 25.5 3.72064 25.342 3.43934 25.0607C3.15803 24.7794 3 24.3978 3 24V7.5C3 7.10218 3.15803 6.72064 3.43934 6.43934C3.72064 6.15804 4.10218 6 4.5 6ZM33 25.5H22.5V15H27.75L33 19.8465V25.5Z" stroke="#202020" stroke-width="2" stroke-linejoin="round"/>
<path d="M22.5 27C22.5 27.7956 22.8161 28.5587 23.3787 29.1213C23.9413 29.6839 24.7044 30 25.5 30C26.2956 30 27.0587 29.6839 27.6213 29.1213C28.1839 28.5587 28.5 27.7956 28.5 27M6 27C6 27.7956 6.31607 28.5587 6.87868 29.1213C7.44129 29.6839 8.20435 30 9 30C9.79565 30 10.5587 29.6839 11.1213 29.1213C11.6839 28.5587 12 27.7956 12 27" stroke="#202020" stroke-width="2" stroke-linecap="round" stroke-linejoin="round"/>
</svg>
