<svg width="28" height="28" viewBox="0 0 28 28" fill="none" xmlns="http://www.w3.org/2000/svg">
<g id="&#240;&#159;&#166;&#134; icon &#34;globe alt&#34;">
<path id="Vector" d="M27 14C27 21.1798 21.1798 27 14 27M27 14C27 6.8203 21.1798 1 14 1M27 14H1M14 27C6.8203 27 1 21.1798 1 14M14 27C16.3933 27 18.3333 21.1798 18.3333 14C18.3333 6.8203 16.3933 1 14 1M14 27C11.6067 27 9.66667 21.1798 9.66667 14C9.66667 6.8203 11.6067 1 14 1M14 1C6.8203 1 1 6.8203 1 14" stroke="#202020" stroke-width="2" stroke-linecap="round" stroke-linejoin="round"/>
</g>
</svg>
